<?xml version="1.0" encoding="iso-8859-1"?>
<!-- Generator: Adobe Illustrator 23.1.0, SVG Export Plug-In . SVG Version: 6.00 Build 0)  -->
<svg version="1.1" id="&#x421;&#x43B;&#x43E;&#x439;_1"
	 xmlns="http://www.w3.org/2000/svg" xmlns:xlink="http://www.w3.org/1999/xlink" x="0px" y="0px" viewBox="0 0 24 18"
	 style="enable-background:new 0 0 24 18;" xml:space="preserve">
<path d="M15.3,18c-0.3,0-0.6-0.1-0.9-0.2c-0.9-0.4-1.5-1.2-1.5-2.2v-2c0-0.5,0.4-0.9,0.9-0.9s0.9,0.4,0.9,0.9v2
	c0,0.3,0.2,0.4,0.3,0.4s0.3,0.1,0.5-0.1l6.2-6.2c0.4-0.4,0.4-1,0-1.3l-6.2-6.2C15.4,2,15.2,2,15.1,2.1c-0.1,0-0.3,0.2-0.3,0.4v5.7
	c0,1-0.8,1.9-1.9,1.9h-12C0.4,10,0,9.6,0,9.1s0.4-0.9,0.9-0.9h12V2.5c0-1,0.6-1.8,1.5-2.2C15.3,0,16.3,0.2,17,0.8L23.2,7
	c1.1,1.1,1.1,2.9,0,4L17,17.3C16.5,17.7,15.9,18,15.3,18z"/>
</svg>
