<svg width="24" height="18" viewBox="0 0 24 18" fill="none" xmlns="http://www.w3.org/2000/svg">
<path d="M15.2996 17.9512C14.9945 17.9512 14.6862 17.8919 14.3914 17.7698C13.5086 17.4045 12.9382 16.5543 12.9382 15.604V13.5869C12.9382 13.0691 13.3579 12.6492 13.8757 12.6492C14.3936 12.6492 14.8134 13.0691 14.8134 13.5869V15.604C14.8134 15.8849 15.0198 16.0004 15.1084 16.0372C15.1987 16.0746 15.4305 16.1396 15.6326 15.9373L21.8513 9.71093C22.2177 9.34417 22.2177 8.74743 21.8513 8.38066L15.6326 2.15452C15.4305 1.95219 15.1987 2.01701 15.1086 2.05436C15.0198 2.09117 14.8134 2.20689 14.8134 2.48778V8.15508C14.8134 9.18908 13.9722 10.0303 12.9382 10.0303H0.937501C0.419678 10.0303 0 9.61059 0 9.09276C0 8.57494 0.419678 8.15508 0.937501 8.15508H12.9382V2.48778C12.9382 1.53746 13.5086 0.687114 14.3914 0.321819C15.2772 -0.0447588 16.2852 0.15446 16.9592 0.829388L23.1779 7.05553C24.2739 8.15306 24.2739 9.93871 23.1779 11.0362L16.9592 17.2624C16.5095 17.7126 15.9111 17.951 15.2996 17.9512Z" fill="black"/>
</svg>
