<?xml version="1.0" encoding="iso-8859-1"?>
<!-- Generator: Adobe Illustrator 23.1.0, SVG Export Plug-In . SVG Version: 6.00 Build 0)  -->
<svg version="1.1" id="&#x421;&#x43B;&#x43E;&#x439;_1"
	 xmlns="http://www.w3.org/2000/svg" xmlns:xlink="http://www.w3.org/1999/xlink" x="0px" y="0px" viewBox="0 0 20 24"
	 style="enable-background:new 0 0 20 24;" xml:space="preserve">
<path d="M19.879,17.855c-0.095-0.509-0.585-0.844-1.094-0.749s-0.844,0.585-0.749,1.094c0.071,0.378-0.095,0.647-0.2,0.773
	c-0.105,0.126-0.338,0.339-0.721,0.339H2.884c-0.383,0-0.616-0.212-0.721-0.339c-0.105-0.127-0.271-0.396-0.2-0.773
	c0.266-1.419,0.799-2.352,1.316-3.255c0.627-1.096,1.275-2.23,1.275-3.977V9.562c0-2.956,2.403-5.394,5.358-5.437h0.177
	c2.945,0.043,5.34,2.481,5.34,5.437v1.406c0,1.487,0.486,2.51,0.942,3.353c0.17,0.314,0.492,0.491,0.825,0.491
	c0.151,0,0.304-0.036,0.445-0.113c0.455-0.246,0.625-0.815,0.378-1.271c-0.454-0.838-0.716-1.509-0.716-2.46V9.563
	c0-1.929-0.747-3.752-2.104-5.131c-1.163-1.182-2.656-1.92-4.271-2.124v-1.37C10.928,0.42,10.508,0,9.991,0
	C9.473,0,9.053,0.42,9.053,0.938V2.31C5.469,2.775,2.678,5.868,2.678,9.563v1.406c0,1.249-0.453,2.042-1.027,3.046
	c-0.566,0.989-1.207,2.11-1.531,3.84c-0.155,0.826,0.064,1.67,0.601,2.316c0.536,0.646,1.325,1.016,2.164,1.016h4.312
	c0,1.551,1.262,2.813,2.812,2.813s2.813-1.262,2.813-2.813h4.294c0.839,0,1.628-0.37,2.164-1.016
	C19.815,19.525,20.034,18.681,19.879,17.855z M10.009,22.125c-0.517,0-0.937-0.421-0.937-0.938h1.875
	C10.946,21.704,10.526,22.125,10.009,22.125z"/>
</svg>
