<?xml version="1.0" encoding="iso-8859-1"?>
<!-- Generator: Adobe Illustrator 23.1.0, SVG Export Plug-In . SVG Version: 6.00 Build 0)  -->
<svg version="1.1" id="&#x421;&#x43B;&#x43E;&#x439;_1"
	 xmlns="http://www.w3.org/2000/svg" xmlns:xlink="http://www.w3.org/1999/xlink" x="0px" y="0px" viewBox="0 0 20 20"
	 style="enable-background:new 0 0 20 20;" xml:space="preserve">
<path d="M19.219,13.75C19.65,13.75,20,13.4,20,12.969V4.688c0-1.723-1.402-3.125-3.125-3.125h-1.016V0.781
	C15.859,0.35,15.51,0,15.078,0c-0.432,0-0.781,0.35-0.781,0.781v0.781h-3.555V0.781C10.742,0.35,10.392,0,9.961,0
	C9.529,0,9.18,0.35,9.18,0.781v0.781H5.664V0.781C5.664,0.35,5.314,0,4.883,0C4.451,0,4.102,0.35,4.102,0.781v0.781H3.125
	C1.402,1.563,0,2.964,0,4.688v12.188C0,18.598,1.402,20,3.125,20h13.75C18.598,20,20,18.598,20,16.875
	c0-0.431-0.35-0.781-0.781-0.781c-0.431,0-0.781,0.35-0.781,0.781c0,0.862-0.701,1.563-1.563,1.563h-2.969V13.75H19.219z
	 M18.438,12.188h-4.531V7.5h4.531V12.188z M6.094,18.438H3.125c-0.862,0-1.563-0.701-1.563-1.563V13.75h4.531V18.438z M6.094,12.188
	H1.563V7.5h4.531V12.188z M12.344,18.438H7.656V13.75h4.688V18.438z M12.344,12.188H7.656V7.5h4.688V12.188z M1.563,5.938v-1.25
	c0-0.862,0.701-1.563,1.563-1.563h0.977v0.781c0,0.431,0.35,0.781,0.781,0.781c0.431,0,0.781-0.35,0.781-0.781V3.125H9.18v0.781
	c0,0.431,0.35,0.781,0.781,0.781c0.431,0,0.781-0.35,0.781-0.781V3.125h3.555v0.781c0,0.431,0.35,0.781,0.781,0.781
	c0.431,0,0.781-0.35,0.781-0.781V3.125h1.016c0.862,0,1.563,0.701,1.563,1.563v1.25H1.563z"/>
</svg>
