<?xml version="1.0" encoding="iso-8859-1"?>
<!-- Generator: Adobe Illustrator 23.1.0, SVG Export Plug-In . SVG Version: 6.00 Build 0)  -->
<svg version="1.1" id="&#x421;&#x43B;&#x43E;&#x439;_1"
	 xmlns="http://www.w3.org/2000/svg" xmlns:xlink="http://www.w3.org/1999/xlink" x="0px" y="0px" viewBox="0 0 34 28"
	 style="enable-background:new 0 0 34 28;" xml:space="preserve">
<path style="fill:#EAEAEA;" d="M34,23.196V4.804C34,2.155,31.855,0,29.218,0L4.782,0C2.145,0,0,2.155,0,4.804l0,18.392
	C0,25.845,2.146,28,4.782,28h24.436C31.855,28,34,25.845,34,23.196z M29.218,1.402c1.867,0,3.386,1.526,3.386,3.402v4.274h-2.556
	c-0.385,0-0.698,0.314-0.698,0.701c0,0.387,0.313,0.701,0.698,0.701h2.556v7.04h-8.48c-0.117,0-0.23-0.017-0.337-0.05
	c-0.017-0.006-0.034-0.012-0.051-0.017c-0.454-0.161-0.78-0.596-0.78-1.106v-4.695c0-0.51,0.326-0.945,0.78-1.106
	c0.017-0.005,0.035-0.011,0.051-0.017c0.106-0.033,0.219-0.05,0.337-0.05h2.666c0.385,0,0.698-0.314,0.698-0.701
	c0-0.387-0.313-0.701-0.698-0.701h-2.547V8.757c0-2.627-1.544-5.017-3.934-6.089c-0.105-0.047-0.173-0.153-0.173-0.271V1.402H29.218
	z M1.396,9.078V4.804c0-1.876,1.519-3.402,3.387-3.402h9.081v0.996c0,0.117-0.068,0.223-0.173,0.271
	C11.301,3.74,9.756,6.129,9.756,8.757v0.321H1.396z M4.782,26.598c-1.868,0-3.387-1.526-3.387-3.402v-4.274h2.806
	c0.386,0,0.698-0.314,0.698-0.701c0-0.387-0.312-0.701-0.698-0.701H1.396v-7.04h8.48c0.117,0,0.23,0.018,0.336,0.05
	c0.017,0.006,0.034,0.012,0.052,0.017c0.454,0.161,0.78,0.596,0.78,1.106v4.695c0,0.51-0.326,0.945-0.78,1.106
	c-0.017,0.005-0.035,0.011-0.052,0.017c-0.106,0.032-0.219,0.049-0.336,0.049H7.46c-0.385,0-0.698,0.314-0.698,0.701
	c0,0.387,0.313,0.701,0.698,0.701h2.296v0.322c0,2.627,1.544,5.017,3.934,6.089c0.105,0.047,0.173,0.153,0.173,0.271v0.996H4.782z
	 M15.258,26.598v-0.996c0-0.67-0.392-1.278-0.999-1.55c-1.888-0.847-3.107-2.734-3.107-4.809v-0.664
	c0.768-0.445,1.286-1.279,1.286-2.232v-4.695c0-0.953-0.518-1.787-1.286-2.232V8.757c0-2.075,1.22-3.962,3.107-4.809
	c0.607-0.272,0.999-0.881,0.999-1.551V1.402h3.483v0.996c0,0.67,0.392,1.278,0.999,1.55c1.888,0.847,3.107,2.734,3.107,4.809v0.664
	c-0.768,0.445-1.286,1.279-1.286,2.232v4.695c0,0.953,0.518,1.787,1.286,2.232v0.664c0,2.075-1.22,3.963-3.107,4.809
	c-0.607,0.272-0.999,0.881-0.999,1.551v0.996H15.258z M20.137,26.598v-0.996c0-0.117,0.068-0.223,0.173-0.271
	c2.39-1.072,3.934-3.462,3.934-6.089v-0.322h8.361v4.274c0,1.876-1.519,3.402-3.386,3.402H20.137z"/>
</svg>
