<?xml version="1.0" encoding="iso-8859-1"?>
<!-- Generator: Adobe Illustrator 23.1.0, SVG Export Plug-In . SVG Version: 6.00 Build 0)  -->
<svg version="1.1" id="&#x421;&#x43B;&#x43E;&#x439;_1"
	 xmlns="http://www.w3.org/2000/svg" xmlns:xlink="http://www.w3.org/1999/xlink" x="0px" y="0px" viewBox="0 0 20 20"
	 style="enable-background:new 0 0 20 20;" xml:space="preserve">
<path d="M20,10c0,1.974-0.586,3.894-1.694,5.552c-0.24,0.358-0.725,0.455-1.084,0.215c-0.359-0.24-0.455-0.725-0.215-1.084
	c0.936-1.4,1.431-3.019,1.431-4.683c0-4.652-3.785-8.438-8.438-8.438S1.563,5.348,1.563,10S5.348,18.438,10,18.438
	c1.543,0,3.052-0.42,4.365-1.215c0.369-0.224,0.849-0.106,1.073,0.264c0.223,0.369,0.106,0.849-0.263,1.073
	C13.618,19.502,11.829,20,10,20c-2.671,0-5.182-1.04-7.071-2.929C1.04,15.182,0,12.671,0,10c0-2.671,1.04-5.182,2.929-7.071
	C4.818,1.04,7.329,0,10,0c2.671,0,5.182,1.04,7.071,2.929C18.96,4.818,20,7.329,20,10z M10.039,3.125
	c-0.432,0-0.781,0.35-0.781,0.781v4.741C8.791,8.917,8.477,9.422,8.477,10c0,0.863,0.7,1.563,1.563,1.563
	c0.14,0,0.275-0.019,0.405-0.053l2.07,2.07c0.153,0.153,0.352,0.229,0.552,0.229c0.2,0,0.4-0.076,0.552-0.229
	c0.305-0.305,0.305-0.8,0-1.105l-2.07-2.071c0.034-0.129,0.053-0.265,0.053-0.405c0-0.578-0.314-1.083-0.781-1.353V3.906
	C10.82,3.475,10.471,3.125,10.039,3.125z"/>
</svg>
