<?xml version="1.0" encoding="iso-8859-1"?>
<!-- Generator: Adobe Illustrator 23.1.0, SVG Export Plug-In . SVG Version: 6.00 Build 0)  -->
<svg version="1.1" id="&#x421;&#x43B;&#x43E;&#x439;_1"
	 xmlns="http://www.w3.org/2000/svg" xmlns:xlink="http://www.w3.org/1999/xlink" x="0px" y="0px" viewBox="0 0 24 24"
	 style="enable-background:new 0 0 24 24;" xml:space="preserve">
<path d="M16.741,8.491l-3.439,3.439l3.439,3.439c0.366,0.366,0.366,0.96,0,1.326c-0.183,0.183-0.423,0.275-0.663,0.275
	c-0.24,0-0.48-0.092-0.663-0.275l-3.439-3.438l-3.439,3.438c-0.183,0.183-0.423,0.275-0.663,0.275s-0.48-0.092-0.663-0.275
	c-0.366-0.366-0.366-0.96,0-1.326l3.439-3.439L7.212,8.491c-0.366-0.366-0.366-0.96,0-1.326c0.366-0.366,0.96-0.366,1.326,0
	l3.439,3.439l3.439-3.439c0.366-0.366,0.96-0.366,1.326,0C17.107,7.531,17.107,8.125,16.741,8.491z M20.485,3.515
	C18.219,1.248,15.205,0,12,0C8.795,0,5.781,1.248,3.515,3.515S0,8.795,0,12c0,3.205,1.248,6.219,3.515,8.485S8.795,24,12,24
	c2.194,0,4.341-0.598,6.209-1.729c0.443-0.268,0.584-0.845,0.316-1.287c-0.268-0.443-0.845-0.584-1.288-0.316
	c-1.575,0.954-3.386,1.458-5.238,1.458C6.417,22.125,1.875,17.583,1.875,12C1.875,6.417,6.417,1.875,12,1.875
	c5.583,0,10.125,4.542,10.125,10.125c0,1.996-0.594,3.939-1.717,5.62c-0.288,0.43-0.172,1.013,0.258,1.3
	c0.43,0.288,1.013,0.172,1.3-0.258C23.297,16.672,24,14.369,24,12C24,8.795,22.752,5.781,20.485,3.515z"/>
</svg>
