<?xml version="1.0" encoding="iso-8859-1"?>
<!-- Generator: Adobe Illustrator 23.1.0, SVG Export Plug-In . SVG Version: 6.00 Build 0)  -->
<svg version="1.1" id="&#x421;&#x43B;&#x43E;&#x439;_1"
	 xmlns="http://www.w3.org/2000/svg" xmlns:xlink="http://www.w3.org/1999/xlink" x="0px" y="0px" viewBox="0 0 24 24"
	 style="enable-background:new 0 0 24 24;" xml:space="preserve">
<path d="M15.281,14.96v-2.785c0-1.776-1.472-3.222-3.281-3.222s-3.281,1.445-3.281,3.222v2.785
	c-0.979,0.892-1.594,2.177-1.594,3.602c0,2.688,2.187,4.875,4.875,4.875c2.688,0,4.875-2.187,4.875-4.875
	C16.875,17.137,16.26,15.852,15.281,14.96z M10.594,12.176c0-0.743,0.631-1.347,1.406-1.347s1.406,0.604,1.406,1.347v1.719
	c-0.445-0.134-0.918-0.207-1.406-0.207s-0.961,0.073-1.406,0.207V12.176z M12,21.563c-1.654,0-3-1.346-3-3s1.346-3,3-3s3,1.346,3,3
	S13.654,21.563,12,21.563z M24,11.953c0,1.218-0.421,2.409-1.184,3.355c-0.752,0.931-1.806,1.59-2.967,1.855
	c-0.288,0.066-0.449,0.106-0.451,0.106c-0.076,0.019-0.152,0.028-0.227,0.028c-0.421,0-0.803-0.285-0.909-0.711
	c-0.125-0.502,0.181-1.011,0.683-1.136c0.007-0.002,0.179-0.045,0.487-0.115c1.585-0.362,2.693-1.752,2.693-3.382
	c0-1.287-0.707-2.462-1.846-3.066c-0.307-0.163-0.498-0.481-0.498-0.828V6.906c0-2.49-2.026-4.515-4.515-4.515
	c-2.206,0-4.124,1.641-4.462,3.817c-0.056,0.359-0.314,0.654-0.663,0.756C9.792,7.066,9.416,6.957,9.175,6.685
	C8.739,6.19,8.111,5.906,7.453,5.906c-1.267,0-2.297,1.03-2.297,2.297v1.688c0,0.518-0.42,0.937-0.938,0.937H4.212
	c-1.289,0-2.337,1.03-2.337,2.297c0,1.288,0.988,2.297,2.25,2.297h0.609c0.518,0,0.938,0.42,0.938,0.938s-0.42,0.938-0.938,0.938
	H4.125c-1.119,0-2.162-0.437-2.937-1.229C0.422,15.284,0,14.239,0,13.125c0-1.984,1.405-3.649,3.281-4.069V8.203
	c0-2.3,1.872-4.172,4.172-4.172c0.667,0,1.316,0.16,1.897,0.457c0.378-0.924,0.972-1.755,1.739-2.418
	c1.159-1.002,2.643-1.554,4.177-1.554c3.523,0,6.39,2.867,6.39,6.39V7.53C23.115,8.519,24,10.166,24,11.953z M12.984,17.531v1.031
	c0,0.518-0.42,0.938-0.938,0.938c-0.518,0-0.938-0.42-0.938-0.938v-1.031c0-0.518,0.42-0.937,0.938-0.937
	C12.565,16.594,12.984,17.013,12.984,17.531z"/>
</svg>
