<?xml version="1.0" encoding="iso-8859-1"?>
<!-- Generator: Adobe Illustrator 23.1.0, SVG Export Plug-In . SVG Version: 6.00 Build 0)  -->
<svg version="1.1" id="&#x421;&#x43B;&#x43E;&#x439;_1"
	 xmlns="http://www.w3.org/2000/svg" xmlns:xlink="http://www.w3.org/1999/xlink" x="0px" y="0px" viewBox="0 0 14 26"
	 style="enable-background:new 0 0 14 26;" xml:space="preserve">
<g>
	<path style="stroke:#000000;stroke-width:0.5;" d="M10.4,12.4L10.4,12.4L1.1,3c-0.5-0.5-0.5-1.4,0-1.9s1.3-0.5,1.9,0l9.3,9.4
		l-1.7,2.7C10.7,13,10.6,12.7,10.4,12.4z"/>
	<path style="stroke:#000000;stroke-width:0.5;" d="M1.1,23l9.3-9.4l0,0l0.2-0.3l0,0l1.7-2.7c1.3,1.4,1.3,3.5,0,4.9L3,24.9l0,0
		c-0.3,0.3-0.6,0.4-0.9,0.4s-0.7-0.1-0.9-0.4C0.6,24.3,0.6,23.5,1.1,23z"/>
</g>
</svg>
