<?xml version="1.0" encoding="iso-8859-1"?>
<!-- Generator: Adobe Illustrator 23.1.0, SVG Export Plug-In . SVG Version: 6.00 Build 0)  -->
<svg version="1.1" id="&#x421;&#x43B;&#x43E;&#x439;_1"
	 xmlns="http://www.w3.org/2000/svg" xmlns:xlink="http://www.w3.org/1999/xlink" x="0px" y="0px" viewBox="0 0 27.8 16.1"
	 style="enable-background:new 0 0 27.8 16.1;" xml:space="preserve">
<g>
	<path style="stroke:#000000;stroke-width:0.5;" d="M14.7,11.5L14.7,11.5l9.4-9.3c0.5-0.5,1.4-0.5,1.9,0s0.5,1.3,0,1.9l-9.4,9.3
		l-2.7-1.7C14.1,11.8,14.4,11.8,14.7,11.5z"/>
	<path style="stroke:#000000;stroke-width:0.5;" d="M4.1,2.3l9.4,9.3l0,0l0.3,0.2l0,0l2.7,1.7c-1.4,1.3-3.5,1.3-4.9,0L2.2,4.1l0,0
		C2,3.9,1.8,3.5,1.8,3.2s0.1-0.7,0.4-0.9C2.7,1.8,3.6,1.8,4.1,2.3z"/>
</g>
</svg>
