<?xml version="1.0" encoding="iso-8859-1"?>
<!-- Generator: Adobe Illustrator 23.1.0, SVG Export Plug-In . SVG Version: 6.00 Build 0)  -->
<svg version="1.1" id="&#x421;&#x43B;&#x43E;&#x439;_1"
	 xmlns="http://www.w3.org/2000/svg" xmlns:xlink="http://www.w3.org/1999/xlink" x="0px" y="0px" viewBox="0 0 14 26"
	 style="enable-background:new 0 0 14 26;" xml:space="preserve">
<path style="stroke:#000000;stroke-width:0.5;" d="M3.601,13.582L3.601,13.582l9.268,9.415c0.508,0.516,0.507,1.351-0.002,1.866
	c-0.255,0.258-0.59,0.387-0.924,0.387c-0.336,0-0.672-0.13-0.927-0.389h0l-9.267-9.413c-1.332-1.35-1.332-3.545,0.001-4.896
	L3.601,13.582z M3.601,13.582c-0.316-0.32-0.316-0.844,0.001-1.165l0,0l9.267-9.413l0,0c0.508-0.516,0.507-1.351-0.002-1.866v0
	c-0.511-0.517-1.341-0.516-1.851,0.002l0.178,0.175l-0.178-0.175L1.75,10.552L3.601,13.582z"/>
</svg>
