<svg width="7" height="12" viewBox="0 0 7 12" fill="none" xmlns="http://www.w3.org/2000/svg">
<path d="M5.79155 7.12244C6.40269 6.50301 6.4028 5.49713 5.79199 4.87798L5.79155 7.12244ZM5.79155 7.12244L5.7916 7.12239L5.61349 6.94705L5.79138 7.12261C5.79144 7.12256 5.79149 7.1225 5.79155 7.12244ZM4.81225 5.85971L4.81246 5.85992L1.7525 1.13113C1.66642 1.0437 1.55352 0.999998 1.44056 0.999998C1.328 0.999999 1.2154 1.04346 1.12942 1.13037L0.951696 0.954548C0.951692 0.954552 0.951688 0.954556 0.951685 0.95456C0.683241 1.22592 0.682695 1.66507 0.950498 1.93709L4.81225 5.85971Z" fill="black" stroke="black" stroke-width="0.5"/>
</svg>
