<?xml version="1.0" encoding="iso-8859-1"?>
<!-- Generator: Adobe Illustrator 23.1.0, SVG Export Plug-In . SVG Version: 6.00 Build 0)  -->
<svg version="1.1" id="&#x421;&#x43B;&#x43E;&#x439;_1"
	 xmlns="http://www.w3.org/2000/svg" xmlns:xlink="http://www.w3.org/1999/xlink" x="0px" y="0px" viewBox="0 0 24 24"
	 style="enable-background:new 0 0 24 24;" xml:space="preserve">
<path d="M16.522,10.313c0-0.518-0.42-0.938-0.937-0.938H5.929c-0.518,0-0.938,0.42-0.938,0.938c0,0.518,0.42,0.938,0.938,0.938
	h9.656C16.103,11.25,16.522,10.83,16.522,10.313z"/>
<path d="M5.929,13.125c-0.518,0-0.938,0.42-0.938,0.938S5.411,15,5.929,15h5.865c0.518,0,0.938-0.42,0.938-0.938
	s-0.42-0.938-0.938-0.938H5.929z"/>
<path d="M8.132,22.125H4.996c-1.034,0-1.875-0.841-1.875-1.875V3.75c0-1.034,0.841-1.875,1.875-1.875h11.526
	c1.034,0,1.875,0.841,1.875,1.875v5.766c0,0.518,0.42,0.937,0.938,0.937c0.518,0,0.938-0.42,0.938-0.937V3.75
	c0-2.068-1.682-3.75-3.75-3.75H4.996c-2.068,0-3.75,1.682-3.75,3.75v16.5c0,2.068,1.682,3.75,3.75,3.75h3.135
	c0.518,0,0.938-0.42,0.938-0.938S8.649,22.125,8.132,22.125z"/>
<path d="M21.932,13.574c-1.097-1.097-2.881-1.097-3.977-0.001l-5.147,5.136c-0.109,0.109-0.19,0.243-0.235,0.391l-1.121,3.69
	c-0.099,0.327-0.013,0.683,0.226,0.927C11.858,23.9,12.101,24,12.35,24c0.083,0,0.168-0.011,0.25-0.034l3.784-1.048
	c0.156-0.043,0.298-0.126,0.412-0.24l5.136-5.127C23.029,16.455,23.029,14.67,21.932,13.574z M15.646,21.177l-1.904,0.527
	l0.557-1.834l3.473-3.465l1.326,1.326L15.646,21.177z M20.607,16.225l-0.182,0.181L19.1,15.08l0.181-0.181
	c0.366-0.366,0.96-0.366,1.326,0C20.972,15.265,20.972,15.86,20.607,16.225z"/>
<path d="M15.585,5.625H5.929c-0.518,0-0.938,0.42-0.938,0.938S5.411,7.5,5.929,7.5h9.656c0.518,0,0.937-0.42,0.937-0.938
	S16.103,5.625,15.585,5.625z"/>
</svg>
