<?xml version="1.0" encoding="iso-8859-1"?>
<!-- Generator: Adobe Illustrator 23.1.0, SVG Export Plug-In . SVG Version: 6.00 Build 0)  -->
<svg version="1.1" id="&#x421;&#x43B;&#x43E;&#x439;_1"
	 xmlns="http://www.w3.org/2000/svg" xmlns:xlink="http://www.w3.org/1999/xlink" x="0px" y="0px" viewBox="0 0 24 24"
	 style="enable-background:new 0 0 24 24;" xml:space="preserve">
<path d="M23.728,11.082l-9.768-9.833c-0.012-0.013-0.026-0.025-0.039-0.037c-1.067-0.958-2.679-0.961-3.749-0.008
	c-0.013,0.012-0.026,0.024-0.039,0.037l-9.857,9.838c-0.366,0.366-0.367,0.959-0.001,1.326c0.366,0.366,0.959,0.367,1.326,0.001
	l0.744-0.743v8.095c0,2.068,1.682,3.75,3.75,3.75h3.375c0.518,0,0.937-0.42,0.937-0.938V14.93h3.281v7.641
	c0,0.518,0.42,0.938,0.938,0.938h3.281c2.068,0,3.75-1.682,3.75-3.75c0-0.518-0.42-0.938-0.938-0.938
	c-0.518,0-0.938,0.42-0.938,0.938c0,1.034-0.841,1.875-1.875,1.875h-2.344v-7.641c0-0.518-0.42-0.938-0.938-0.938H9.469
	c-0.518,0-0.938,0.42-0.938,0.938v7.641H6.094c-1.034,0-1.875-0.841-1.875-1.875V9.821c0-0.009,0-0.019,0-0.028l7.217-7.202
	c0.351-0.298,0.866-0.297,1.216,0.003l7.13,7.177v5.301c0,0.518,0.42,0.938,0.938,0.938c0.518,0,0.938-0.42,0.938-0.938v-3.413
	l0.741,0.746c0.183,0.184,0.424,0.277,0.665,0.277c0.239,0,0.478-0.091,0.661-0.272C24.091,12.043,24.093,11.449,23.728,11.082z"/>
</svg>
