<?xml version="1.0" encoding="iso-8859-1"?>
<!-- Generator: Adobe Illustrator 23.1.0, SVG Export Plug-In . SVG Version: 6.00 Build 0)  -->
<svg version="1.1" id="&#x421;&#x43B;&#x43E;&#x439;_1"
	 xmlns="http://www.w3.org/2000/svg" xmlns:xlink="http://www.w3.org/1999/xlink" x="0px" y="0px" viewBox="0 0 20 24"
	 style="enable-background:new 0 0 20 24;" xml:space="preserve">
<path d="M16.487,2.638C14.771,0.935,12.502,0,10.089,0c-0.021,0-0.042,0-0.062,0c-0.021,0-0.041,0-0.062,0
	c-2.43,0-4.719,0.945-6.451,2.664C1.787,4.378,0.836,6.649,0.836,9.059c0,3.626,2.082,5.579,3.601,7.006
	c1.051,0.986,1.695,1.628,1.695,2.357v2.766C6.133,22.738,7.394,24,8.945,24h2.109c1.551,0,2.813-1.262,2.813-2.813v-2.859
	c0-0.037-0.002-0.074-0.006-0.11c0.092-0.553,0.56-1.092,1.35-1.843c0.375-0.357,0.39-0.95,0.033-1.325
	c-0.357-0.375-0.95-0.39-1.325-0.033c-0.774,0.737-1.489,1.484-1.794,2.421h-1.21V9.482l0.938-0.938l1.212,1.212
	c0.183,0.183,0.423,0.275,0.663,0.275c0.24,0,0.48-0.092,0.663-0.275c0.366-0.366,0.366-0.96,0-1.326l-1.875-1.875
	c-0.366-0.366-0.96-0.366-1.326,0L9.977,7.768L8.764,6.556c-0.366-0.366-0.96-0.366-1.326,0L5.564,8.431
	c-0.366,0.366-0.366,0.96,0,1.326c0.366,0.366,0.96,0.366,1.326,0l1.212-1.212l0.938,0.938v7.955H7.853
	c-0.345-1.062-1.219-1.882-2.132-2.74c-1.48-1.389-3.01-2.824-3.01-5.639c0-1.907,0.754-3.705,2.124-5.065
	c1.378-1.368,3.198-2.12,5.13-2.12c0.018,0,0.037,0,0.055,0c0.005,0,0.009,0,0.014,0c0.018,0,0.036,0,0.055,0
	c1.915,0,3.716,0.742,5.077,2.093c1.322,1.313,2.071,3.044,2.121,4.894c-0.014,0.064-0.021,0.13-0.021,0.197
	c0,1.084-0.218,2.026-0.666,2.88c-0.241,0.458-0.064,1.025,0.394,1.266c0.458,0.241,1.025,0.064,1.266-0.394
	c0.561-1.069,0.85-2.227,0.878-3.532c0.017-0.07,0.026-0.144,0.026-0.22C19.164,6.632,18.213,4.351,16.487,2.638z M8.008,19.313
	h3.984v1.875c0,0.517-0.421,0.938-0.938,0.938H8.945c-0.517,0-0.938-0.421-0.938-0.938V19.313z"/>
</svg>
