<?xml version="1.0" encoding="iso-8859-1"?>
<!-- Generator: Adobe Illustrator 23.1.0, SVG Export Plug-In . SVG Version: 6.00 Build 0)  -->
<svg version="1.1" id="&#x421;&#x43B;&#x43E;&#x439;_1"
	 xmlns="http://www.w3.org/2000/svg" xmlns:xlink="http://www.w3.org/1999/xlink" x="0px" y="0px" viewBox="0 0 24 20"
	 style="enable-background:new 0 0 24 20;" xml:space="preserve">
<path d="M23.063,11.664c0.518,0,0.938-0.42,0.938-0.938V4.586c0-2.068-1.682-3.75-3.75-3.75H3.75C1.682,0.836,0,2.518,0,4.586
	v10.828c0,2.068,1.682,3.75,3.75,3.75h16.5c2.068,0,3.75-1.682,3.75-3.75c0-0.518-0.42-0.938-0.938-0.938s-0.938,0.42-0.938,0.938
	c0,1.034-0.841,1.875-1.875,1.875H3.75c-1.034,0-1.875-0.841-1.875-1.875V4.785l8.145,5.065c0.611,0.38,1.295,0.57,1.98,0.57
	s1.37-0.19,1.98-0.57l8.145-5.065v5.942C22.125,11.244,22.545,11.664,23.063,11.664z M12.99,8.257c-0.611,0.38-1.37,0.38-1.98,0
	L2.657,3.063C2.965,2.842,3.343,2.711,3.75,2.711h16.5c0.407,0,0.785,0.131,1.093,0.352L12.99,8.257z"/>
</svg>
