<?xml version="1.0" encoding="iso-8859-1"?>
<!-- Generator: Adobe Illustrator 23.1.0, SVG Export Plug-In . SVG Version: 6.00 Build 0)  -->
<svg version="1.1" id="&#x421;&#x43B;&#x43E;&#x439;_1"
	 xmlns="http://www.w3.org/2000/svg" xmlns:xlink="http://www.w3.org/1999/xlink" x="0px" y="0px" viewBox="0 0 24 24"
	 style="enable-background:new 0 0 24 24;" xml:space="preserve">
<path d="M23.063,7.26c-0.233-0.543-0.507-1.068-0.816-1.568l0.051-0.051c0.366-0.366,0.366-0.959,0-1.325l-2.651-2.65
	c-0.176-0.176-0.414-0.274-0.663-0.274c-0.248,0-0.487,0.099-0.663,0.274l-0.07,0.07C14.936-0.27,10.883-0.559,7.305,0.981
	c-0.521,0.224-1.027,0.486-1.51,0.78L5.732,1.699C5.557,1.523,5.318,1.424,5.07,1.424c-0.249,0-0.487,0.099-0.663,0.274l-2.65,2.65
	c-0.366,0.366-0.366,0.959,0,1.325l0.059,0.059c-0.924,1.513-1.509,3.223-1.7,4.987c-0.221,2.041,0.094,4.122,0.909,6.019
	c0.224,0.521,0.486,1.027,0.78,1.51L1.79,18.264c-0.366,0.366-0.366,0.959,0,1.325L4.44,22.24c0.176,0.176,0.414,0.274,0.663,0.274
	c0.248,0,0.487-0.099,0.663-0.274l0.012-0.012C7.693,23.402,9.857,24,12.036,24c1.605,0,3.219-0.324,4.747-0.982
	c0.543-0.233,1.067-0.507,1.568-0.816l0.004,0.004c0.176,0.176,0.414,0.274,0.663,0.274c0.249,0,0.487-0.099,0.663-0.274
	l2.651-2.651c0.366-0.366,0.366-0.959,0-1.325L18.28,14.18c0.24-0.683,0.37-1.417,0.37-2.181c0-0.808-0.146-1.582-0.413-2.298
	l2.64-2.64c0.17,0.305,0.325,0.619,0.463,0.94c0.788,1.833,1.011,3.852,0.643,5.838c-0.094,0.509,0.242,0.998,0.751,1.092
	c0.058,0.011,0.115,0.016,0.172,0.016c0.443,0,0.837-0.316,0.92-0.767C24.263,11.828,23.998,9.435,23.063,7.26z M8.045,2.702
	c2.876-1.237,6.115-1.074,8.834,0.406l-2.655,2.655c-0.683-0.24-1.417-0.37-2.181-0.37c-0.782,0-1.533,0.137-2.23,0.388L7.166,3.132
	C7.451,2.975,7.745,2.831,8.045,2.702z M16.776,12c0,1.808-1.02,3.383-2.515,4.179c-0.089,0.028-0.174,0.07-0.253,0.126
	c-0.599,0.274-1.264,0.428-1.965,0.428c-2.609,0-4.732-2.123-4.732-4.732c0-2.609,2.123-4.732,4.732-4.732
	C14.653,7.267,16.776,9.39,16.776,12z M5.07,3.686l3.022,3.022C7.589,7.085,7.142,7.531,6.765,8.032l-3.02-3.02L5.07,3.686z
	 M2.747,15.998c-1.25-2.907-1.075-6.164,0.439-8.895L5.832,9.75C5.577,10.452,5.437,11.21,5.437,12c0,0.782,0.137,1.533,0.388,2.229
	l-2.648,2.649C3.02,16.592,2.876,16.298,2.747,15.998z M3.778,18.927l2.975-2.975c0.376,0.502,0.822,0.949,1.323,1.327l-2.973,2.974
	L3.778,18.927z M16.043,21.297c-2.9,1.247-6.163,1.073-8.895-0.439l2.646-2.646c0.703,0.255,1.46,0.395,2.25,0.395
	c0.808,0,1.582-0.146,2.298-0.413l2.641,2.64C16.678,21.004,16.364,21.159,16.043,21.297z M20.343,18.894l-1.325,1.325l-2.969-2.969
	c0.498-0.381,0.941-0.831,1.314-1.337L20.343,18.894z M15.958,6.68l3.027-3.027l1.325,1.325l-3.016,3.016
	C16.913,7.496,16.463,7.053,15.958,6.68z"/>
</svg>
