<?xml version="1.0" encoding="iso-8859-1"?>
<!-- Generator: Adobe Illustrator 23.1.0, SVG Export Plug-In . SVG Version: 6.00 Build 0)  -->
<svg version="1.1" id="&#x421;&#x43B;&#x43E;&#x439;_1"
	 xmlns="http://www.w3.org/2000/svg" xmlns:xlink="http://www.w3.org/1999/xlink" x="0px" y="0px" viewBox="0 0 64 64"
	 style="enable-background:new 0 0 64 64;" xml:space="preserve">
<path d="M46.25,45.75c1.381,0,2.5-1.119,2.5-2.5s-1.119-2.5-2.5-2.5s-2.5,1.119-2.5,2.5S44.869,45.75,46.25,45.75z"/>
<path d="M57.5,45.25c1.381,0,2.5-1.119,2.5-2.5V33.5c0-5.514-4.486-10-10-10h-3.005v-8.817c0-8.096-6.729-14.683-15-14.683
	s-15,6.587-15,14.683V23.5H14c-5.514,0-10,4.486-10,10V54c0,5.514,4.486,10,10,10h36c5.514,0,10-4.486,10-10
	c0-1.381-1.119-2.5-2.5-2.5S55,52.619,55,54c0,2.757-2.243,5-5,5H14c-2.757,0-5-2.243-5-5V33.5c0-2.757,2.243-5,5-5h36
	c2.757,0,5,2.243,5,5v9.25C55,44.131,56.119,45.25,57.5,45.25z M41.995,23.5h-20v-8.817c0-5.339,4.486-9.683,10-9.683
	s10,4.344,10,9.683V23.5z"/>
<path d="M27.375,45.75c1.381,0,2.5-1.119,2.5-2.5s-1.119-2.5-2.5-2.5s-2.5,1.119-2.5,2.5S25.994,45.75,27.375,45.75z"/>
<path d="M18,45.75c1.381,0,2.5-1.119,2.5-2.5s-1.119-2.5-2.5-2.5s-2.5,1.119-2.5,2.5S16.619,45.75,18,45.75z"/>
<path d="M36.75,45.75c1.381,0,2.5-1.119,2.5-2.5s-1.119-2.5-2.5-2.5s-2.5,1.119-2.5,2.5S35.369,45.75,36.75,45.75z"/>
</svg>
