<?xml version="1.0" encoding="iso-8859-1"?>
<!-- Generator: Adobe Illustrator 23.1.0, SVG Export Plug-In . SVG Version: 6.00 Build 0)  -->
<svg version="1.1" id="&#x421;&#x43B;&#x43E;&#x439;_1"
	 xmlns="http://www.w3.org/2000/svg" xmlns:xlink="http://www.w3.org/1999/xlink" x="0px" y="0px" viewBox="0 0 64 64"
	 style="enable-background:new 0 0 64 64;" xml:space="preserve">
<g>
	<defs>
		<rect id="SVGID_1_" width="64" height="64"/>
	</defs>
	<clipPath id="SVGID_2_">
		<use xlink:href="#SVGID_1_"  style="overflow:visible;"/>
	</clipPath>
	<g style="clip-path:url(#SVGID_2_);">
		<path d="M42.25,45.75c1.381,0,2.5-1.119,2.5-2.5s-1.119-2.5-2.5-2.5s-2.5,1.119-2.5,2.5S40.869,45.75,42.25,45.75z"/>
		<path d="M29.75,59.001H10c-2.757,0-5-2.243-5-5v-20.5c0-2.757,2.243-5,5-5h36c2.757,0,5,2.243,5,5v5c0,1.381,1.119,2.5,2.5,2.5
			c1.381,0,2.5-1.119,2.5-2.5v-5c0-5.514-4.486-10-10-10h-3.005v-8.817c0-8.096-6.729-14.683-15-14.683c-8.271,0-15,6.587-15,14.683
			v8.817H10c-5.514,0-10,4.486-10,10v20.5c0,5.514,4.486,10,10,10h19.75c1.381,0,2.5-1.119,2.5-2.5
			C32.25,60.12,31.131,59.001,29.75,59.001z M17.995,14.684c0-5.339,4.486-9.683,10-9.683c5.514,0,10,4.344,10,9.683v8.817h-20
			V14.684z"/>
		<path d="M62.955,40.717c-1.123-0.804-2.685-0.545-3.488,0.577L47.145,58.507c-0.336,0.39-0.758,0.475-0.984,0.49
			c-0.232,0.015-0.678-0.014-1.071-0.383l-7.964-7.771c-0.988-0.965-2.571-0.945-3.535,0.043c-0.964,0.988-0.945,2.571,0.043,3.535
			l7.977,7.785c0.007,0.007,0.015,0.014,0.022,0.022C42.83,63.366,44.426,64,46.069,64c0.141,0,0.283-0.005,0.424-0.014
			c1.789-0.119,3.46-0.989,4.583-2.387c0.029-0.036,0.057-0.073,0.084-0.111l12.373-17.283
			C64.336,43.083,64.078,41.521,62.955,40.717z"/>
		<path d="M32.75,45.75c1.381,0,2.5-1.119,2.5-2.5s-1.119-2.5-2.5-2.5s-2.5,1.119-2.5,2.5S31.369,45.75,32.75,45.75z"/>
		<path d="M14,45.75c1.381,0,2.5-1.119,2.5-2.5s-1.119-2.5-2.5-2.5s-2.5,1.119-2.5,2.5S12.619,45.75,14,45.75z"/>
		<path d="M23.375,45.75c1.381,0,2.5-1.119,2.5-2.5s-1.119-2.5-2.5-2.5s-2.5,1.119-2.5,2.5S21.994,45.75,23.375,45.75z"/>
	</g>
</g>
</svg>
