<?xml version="1.0" encoding="iso-8859-1"?>
<!-- Generator: Adobe Illustrator 23.1.0, SVG Export Plug-In . SVG Version: 6.00 Build 0)  -->
<svg version="1.1" id="&#x421;&#x43B;&#x43E;&#x439;_1"
	 xmlns="http://www.w3.org/2000/svg" xmlns:xlink="http://www.w3.org/1999/xlink" x="0px" y="0px" viewBox="0 0 64 64"
	 style="enable-background:new 0 0 64 64;" xml:space="preserve">
<path d="M57.5,45.25c1.381,0,2.5-1.119,2.5-2.5V33.5c0-5.514-4.486-10-10-10H21.995v-8.817c0-5.339,4.486-9.683,10-9.683
	s10,4.374,10,9.75c0,1.381,1.119,2.5,2.5,2.5c1.381,0,2.5-1.119,2.5-2.5c0-8.133-6.729-14.75-15-14.75s-15,6.587-15,14.683V23.5H14
	c-5.514,0-10,4.486-10,10V54c0,5.514,4.486,10,10,10h36c5.514,0,10-4.486,10-10c0-1.381-1.119-2.5-2.5-2.5S55,52.619,55,54
	c0,2.757-2.243,5-5,5H14c-2.757,0-5-2.243-5-5V33.5c0-2.757,2.243-5,5-5h36c2.757,0,5,2.243,5,5v9.25
	C55,44.131,56.119,45.25,57.5,45.25z"/>
<path d="M32,45.875c1.381,0,2.5-1.119,2.5-2.5s-1.119-2.5-2.5-2.5s-2.5,1.119-2.5,2.5S30.619,45.875,32,45.875z"/>
</svg>
