<?xml version="1.0" encoding="iso-8859-1"?>
<!-- Generator: Adobe Illustrator 23.1.0, SVG Export Plug-In . SVG Version: 6.00 Build 0)  -->
<svg version="1.1" id="&#x421;&#x43B;&#x43E;&#x439;_1"
	 xmlns="http://www.w3.org/2000/svg" xmlns:xlink="http://www.w3.org/1999/xlink" x="0px" y="0px" viewBox="0 0 24 24"
	 style="enable-background:new 0 0 24 24;" xml:space="preserve">
<path d="M6.283,23.439c-0.194,0-0.389-0.038-0.576-0.115c-0.563-0.233-0.926-0.777-0.926-1.386v-1.594
	c0-0.569-0.463-1.031-1.031-1.031c-2.068,0-3.75-1.682-3.75-3.75V4.313c0-2.068,1.682-3.75,3.75-3.75h16.5
	c2.068,0,3.75,1.682,3.75,3.75v6.563c0,0.518-0.42,0.938-0.938,0.938s-0.938-0.42-0.938-0.938V4.313
	c0-1.034-0.841-1.875-1.875-1.875H3.75c-1.034,0-1.875,0.841-1.875,1.875v11.25c0,1.034,0.841,1.875,1.875,1.875
	c1.603,0,2.906,1.304,2.906,2.906v0.69l2.041-2.041c1.003-1.003,2.335-1.555,3.753-1.555h7.799c1.034,0,1.875-0.841,1.875-1.875
	c0-0.518,0.42-0.938,0.938-0.938S24,15.045,24,15.563c0,2.068-1.682,3.75-3.75,3.75h-7.799c-0.917,0-1.779,0.357-2.427,1.005
	l-2.681,2.681C7.055,23.286,6.673,23.439,6.283,23.439z M19.313,6.188c0-0.518-0.42-0.938-0.938-0.938H5.625
	c-0.518,0-0.938,0.42-0.938,0.938s0.42,0.938,0.938,0.938h12.75C18.893,7.125,19.313,6.705,19.313,6.188z M19.313,9.938
	C19.313,9.42,18.893,9,18.375,9H5.625C5.107,9,4.688,9.42,4.688,9.938c0,0.518,0.42,0.938,0.938,0.938h12.75
	C18.893,10.875,19.313,10.455,19.313,9.938z M15.563,13.688c0-0.518-0.42-0.938-0.938-0.938h-9c-0.518,0-0.938,0.42-0.938,0.938
	s0.42,0.938,0.938,0.938h9C15.143,14.625,15.563,14.205,15.563,13.688z"/>
</svg>
