<?xml version="1.0" encoding="iso-8859-1"?>
<!-- Generator: Adobe Illustrator 23.1.0, SVG Export Plug-In . SVG Version: 6.00 Build 0)  -->
<svg version="1.1" id="&#x421;&#x43B;&#x43E;&#x439;_1"
	 xmlns="http://www.w3.org/2000/svg" xmlns:xlink="http://www.w3.org/1999/xlink" x="0px" y="0px" viewBox="0 0 22 24"
	 style="enable-background:new 0 0 22 24;" xml:space="preserve">
<path d="M13.625,23.063c0,0.518-0.42,0.938-0.938,0.938H4.016c-2.068,0-3.75-1.682-3.75-3.75V6.79c0-0.973,0.377-1.89,1.063-2.581
	l3.096-3.123C5.108,0.396,6.057,0,7.028,0h8.513c2.068,0,3.75,1.682,3.75,3.75v8.766c0,0.518-0.42,0.938-0.938,0.938
	c-0.518,0-0.938-0.42-0.938-0.938V3.75c0-1.034-0.841-1.875-1.875-1.875H7.028c-0.475,0-0.939,0.193-1.273,0.53L2.66,5.529
	C2.508,5.681,2.388,5.857,2.301,6.047h2.605c0.775,0,1.406-0.631,1.406-1.406c0-0.518,0.42-0.938,0.938-0.938
	s0.938,0.42,0.938,0.938c0,1.809-1.472,3.281-3.281,3.281H2.141V20.25c0,1.034,0.841,1.875,1.875,1.875h8.672
	C13.205,22.125,13.625,22.545,13.625,23.063z M20.911,23.176c-0.548,0.548-1.269,0.822-1.989,0.822c-0.72,0-1.441-0.274-1.989-0.822
	l-5.127-5.136c-0.114-0.114-0.197-0.256-0.24-0.412l-1.048-3.784c-0.091-0.33,0.004-0.683,0.249-0.921
	c0.245-0.239,0.6-0.325,0.927-0.226l3.69,1.121c0.148,0.045,0.282,0.125,0.391,0.235l5.136,5.147
	C22.007,20.295,22.007,22.08,20.911,23.176z M13.308,16.89l3.446,3.453l1.326-1.326l-3.465-3.473l-1.834-0.557L13.308,16.89z
	 M19.585,20.525l-0.181-0.181l-1.326,1.326l0.181,0.182c0.365,0.365,0.96,0.365,1.325-0.001C19.95,21.485,19.95,20.89,19.585,20.525
	z"/>
</svg>
