<?xml version="1.0" encoding="iso-8859-1"?>
<!-- Generator: Adobe Illustrator 23.1.0, SVG Export Plug-In . SVG Version: 6.00 Build 0)  -->
<svg version="1.1" id="&#x421;&#x43B;&#x43E;&#x439;_1"
	 xmlns="http://www.w3.org/2000/svg" xmlns:xlink="http://www.w3.org/1999/xlink" x="0px" y="0px" viewBox="0 0 24 24"
	 style="enable-background:new 0 0 24 24;" xml:space="preserve">
<path d="M12,6.563c-2.998,0-5.438,2.439-5.438,5.438c0,2.998,2.439,5.438,5.438,5.438c0.56,0,1.113-0.085,1.642-0.253
	c0.494-0.156,0.767-0.683,0.611-1.177c-0.156-0.494-0.683-0.767-1.177-0.611c-0.347,0.11-0.709,0.165-1.076,0.165
	c-1.964,0-3.563-1.598-3.563-3.563S10.036,8.438,12,8.438s3.563,1.598,3.563,3.563c0,0.341-0.048,0.679-0.143,1.002
	c-0.145,0.497,0.14,1.018,0.637,1.163c0.497,0.145,1.018-0.14,1.163-0.637c0.145-0.495,0.218-1.009,0.218-1.529
	C17.438,9.002,14.998,6.563,12,6.563z"/>
<path d="M21.188,8.719h-0.472c-0.124,0-0.237-0.078-0.286-0.196l-0.008-0.02c-0.05-0.122-0.026-0.257,0.062-0.345l0.334-0.334
	c1.097-1.097,1.097-2.881,0-3.977l-0.663-0.663c-0.531-0.531-1.238-0.824-1.989-0.824c-0.751,0-1.458,0.293-1.989,0.824
	l-0.334,0.334c-0.088,0.088-0.223,0.112-0.344,0.062l-0.018-0.007c-0.121-0.05-0.199-0.163-0.199-0.287V2.813
	C15.281,1.262,14.02,0,12.469,0h-0.938C9.98,0,8.719,1.262,8.719,2.813v0.472c0,0.124-0.078,0.237-0.198,0.286L8.502,3.579
	C8.381,3.629,8.245,3.605,8.158,3.517L7.824,3.183C7.292,2.652,6.586,2.359,5.835,2.359c-0.751,0-1.458,0.293-1.989,0.824
	L3.183,3.846c-1.097,1.097-1.097,2.881,0,3.978l0.334,0.334c0.088,0.088,0.112,0.223,0.06,0.348L3.571,8.519
	C3.521,8.64,3.409,8.719,3.285,8.719H2.813C1.262,8.719,0,9.98,0,11.531v0.938c0,1.551,1.262,2.813,2.813,2.813h0.472
	c0.124,0,0.237,0.078,0.286,0.196l0.008,0.02c0.05,0.122,0.026,0.257-0.062,0.345l-0.334,0.334
	c-0.531,0.531-0.824,1.237-0.824,1.989c0,0.751,0.293,1.458,0.824,1.989l0.663,0.663c0.531,0.531,1.238,0.824,1.989,0.824
	c0.751,0,1.458-0.292,1.989-0.824l0.334-0.334c0.088-0.088,0.223-0.112,0.344-0.062l0.018,0.007c0.121,0.05,0.199,0.163,0.199,0.287
	v0.472C8.719,22.738,9.98,24,11.531,24h0.938c1.551,0,2.812-1.262,2.812-2.813v-0.472c0-0.124,0.078-0.237,0.198-0.286l0.018-0.008
	c0.122-0.05,0.257-0.026,0.345,0.062l0.334,0.334c0.531,0.531,1.238,0.824,1.989,0.824c0.751,0,1.458-0.292,1.989-0.824l0.663-0.663
	c0.531-0.531,0.824-1.237,0.824-1.989c0-0.751-0.292-1.458-0.824-1.989l-0.334-0.334c-0.088-0.088-0.112-0.223-0.062-0.345
	l0.007-0.017c0.05-0.121,0.163-0.199,0.287-0.199h0.472c1.551,0,2.813-1.262,2.813-2.813v-0.938C24,9.98,22.738,8.719,21.188,8.719z
	 M22.125,12.469c0,0.517-0.421,0.937-0.938,0.937h-0.472c-0.886,0-1.679,0.533-2.02,1.359l-0.006,0.015
	c-0.342,0.825-0.159,1.762,0.468,2.389l0.334,0.334c0.177,0.177,0.274,0.413,0.274,0.663s-0.097,0.486-0.275,0.663l-0.663,0.663
	c-0.177,0.177-0.412,0.275-0.663,0.275c-0.25,0-0.486-0.097-0.663-0.275l-0.334-0.334c-0.627-0.626-1.565-0.81-2.39-0.467
	l-0.013,0.005c-0.825,0.341-1.359,1.134-1.359,2.02v0.472c0,0.517-0.421,0.938-0.937,0.938h-0.938c-0.517,0-0.937-0.421-0.937-0.938
	v-0.472c0-0.886-0.533-1.679-1.36-2.02L9.221,18.69c-0.276-0.115-0.565-0.17-0.85-0.17c-0.568,0-1.123,0.221-1.54,0.638
	l-0.334,0.334c-0.177,0.177-0.412,0.274-0.663,0.274c-0.25,0-0.486-0.097-0.663-0.275l-0.663-0.663
	c-0.177-0.177-0.275-0.412-0.275-0.663s0.097-0.486,0.275-0.663l0.334-0.334c0.626-0.626,0.81-1.564,0.468-2.389l-0.006-0.015
	c-0.341-0.825-1.134-1.359-2.02-1.359H2.813c-0.517,0-0.938-0.421-0.938-0.937v-0.938c0-0.517,0.421-0.937,0.938-0.937h0.472
	c0.886,0,1.679-0.533,2.021-1.362L5.31,9.222c0.343-0.825,0.159-1.763-0.467-2.39L4.509,6.498c-0.366-0.366-0.366-0.96,0-1.326
	l0.663-0.663c0.177-0.177,0.413-0.275,0.663-0.275c0.25,0,0.486,0.097,0.663,0.275l0.334,0.334c0.627,0.627,1.565,0.81,2.39,0.467
	l0.013-0.005c0.825-0.341,1.359-1.134,1.359-2.02V2.813c0-0.517,0.421-0.938,0.937-0.938h0.938c0.517,0,0.937,0.421,0.937,0.938
	v0.472c0,0.886,0.533,1.679,1.36,2.02l0.013,0.005c0.825,0.343,1.763,0.159,2.39-0.467l0.334-0.334
	c0.177-0.177,0.412-0.275,0.663-0.275c0.25,0,0.486,0.098,0.663,0.275l0.663,0.663c0.366,0.366,0.366,0.96,0,1.326l-0.334,0.334
	c-0.627,0.627-0.81,1.565-0.469,2.386l0.007,0.017c0.341,0.825,1.134,1.359,2.02,1.359h0.472c0.517,0,0.938,0.421,0.938,0.937
	V12.469z"/>
</svg>
