<?xml version="1.0" encoding="iso-8859-1"?>
<!-- Generator: Adobe Illustrator 23.1.0, SVG Export Plug-In . SVG Version: 6.00 Build 0)  -->
<svg version="1.1" id="&#x421;&#x43B;&#x43E;&#x439;_1"
	 xmlns="http://www.w3.org/2000/svg" xmlns:xlink="http://www.w3.org/1999/xlink" x="0px" y="0px" viewBox="0 0 24 24"
	 style="enable-background:new 0 0 24 24;" xml:space="preserve">
<path d="M23.998,19.338c-0.033-0.928-0.42-1.795-1.089-2.44c-1.309-1.262-2.406-1.991-3.452-2.293
	c-1.441-0.417-2.776-0.038-3.968,1.126c-0.002,0.002-0.003,0.004-0.005,0.005l-1.267,1.258c-0.792-0.447-2.332-1.427-3.997-3.091
	l-0.123-0.123c-1.664-1.664-2.645-3.205-3.091-3.996l1.258-1.268c0.002-0.002,0.004-0.004,0.005-0.005
	C9.432,7.32,9.811,5.985,9.394,4.543C9.092,3.497,8.363,2.4,7.101,1.091C6.456,0.423,5.59,0.036,4.662,0.002
	c-0.929-0.034-1.82,0.29-2.512,0.91L2.123,0.937C2.111,0.948,2.098,0.96,2.086,0.972C0.71,2.348-0.011,4.274,0,6.543
	c0.019,3.854,2.137,8.262,5.666,11.79c0.665,0.665,1.422,1.324,2.248,1.957c0.411,0.315,0.999,0.237,1.314-0.174
	c0.315-0.411,0.237-0.999-0.174-1.314c-0.761-0.583-1.455-1.188-2.063-1.795c-3.187-3.187-5.1-7.103-5.117-10.474
	c-0.009-1.747,0.517-3.206,1.52-4.219l0.007-0.006c0.681-0.612,1.713-0.574,2.349,0.085C8.178,4.91,8.003,6.098,6.93,7.198
	L5.192,8.949C4.92,9.223,4.844,9.637,5.001,9.991c0.044,0.099,1.111,2.458,3.769,5.116l0.123,0.123
	c2.658,2.658,5.016,3.725,5.115,3.769c0.353,0.157,0.767,0.081,1.042-0.191l1.751-1.738c1.1-1.073,2.288-1.248,4.805,1.179
	c0.659,0.636,0.697,1.667,0.085,2.349l-0.007,0.007c-1.005,0.995-2.448,1.52-4.177,1.52c-0.014,0-0.029,0-0.043,0
	c-1.382-0.007-2.981-0.385-4.626-1.095c-0.475-0.205-1.027,0.014-1.232,0.49c-0.205,0.475,0.014,1.027,0.49,1.232
	c1.901,0.82,3.705,1.24,5.359,1.248c0.018,0,0.035,0,0.053,0c2.246,0,4.154-0.721,5.519-2.086c0.012-0.012,0.023-0.024,0.035-0.036
	l0.024-0.027C23.708,21.159,24.031,20.267,23.998,19.338z"/>
</svg>
