<?xml version="1.0" encoding="iso-8859-1"?>
<!-- Generator: Adobe Illustrator 23.1.0, SVG Export Plug-In . SVG Version: 6.00 Build 0)  -->
<svg version="1.1" id="&#x421;&#x43B;&#x43E;&#x439;_1"
	 xmlns="http://www.w3.org/2000/svg" xmlns:xlink="http://www.w3.org/1999/xlink" x="0px" y="0px" viewBox="0 0 53 53"
	 style="enable-background:new 0 0 53 53;" xml:space="preserve">
<path d="M50.93,38.922c-1.143,0-2.07,0.927-2.07,2.07c0,2.283-1.858,4.141-4.141,4.141H28.916l-4.76-6.175L39.18,19.847
	l10.151,12.11c0.02,0.024,0.041,0.049,0.062,0.072c0.001,0.001,0.002,0.002,0.002,0.002c0.002,0.003,0.005,0.006,0.008,0.008
	c0.188,0.206,0.41,0.365,0.65,0.477c0.246,0.115,0.519,0.183,0.806,0.193c0.005,0,0.011,0,0.016,0c0.001,0,0.002,0,0.003,0
	c0.148,0.004,0.296-0.008,0.443-0.036l0.005-0.001c0.006-0.001,0.013-0.002,0.019-0.004c0.003-0.001,0.005-0.001,0.008-0.002
	c0.006-0.001,0.011-0.002,0.017-0.004c0.003-0.001,0.006-0.001,0.009-0.002c0.005-0.001,0.01-0.002,0.015-0.003
	c0.004-0.001,0.007-0.002,0.011-0.003c0.005-0.001,0.009-0.002,0.014-0.003c0.004-0.001,0.008-0.002,0.012-0.003
	c0.004-0.001,0.009-0.002,0.013-0.003c0.004-0.001,0.008-0.002,0.012-0.003c0.004-0.001,0.009-0.002,0.013-0.003
	c0.004-0.001,0.008-0.002,0.012-0.003l0.012-0.003c0.004-0.001,0.009-0.002,0.013-0.004c0.004-0.001,0.008-0.002,0.012-0.004
	c0.003-0.001,0.007-0.002,0.01-0.003c0.005-0.002,0.01-0.003,0.015-0.005c0.003-0.001,0.006-0.002,0.008-0.003
	c0.005-0.001,0.01-0.003,0.015-0.005c0.003-0.001,0.006-0.002,0.009-0.003c0.005-0.002,0.01-0.003,0.015-0.005
	c0.002-0.001,0.005-0.002,0.007-0.002c0.006-0.002,0.012-0.004,0.017-0.006c0.002-0.001,0.004-0.002,0.007-0.002
	c0.006-0.002,0.012-0.004,0.017-0.006c0.002-0.001,0.004-0.001,0.006-0.002c0.006-0.002,0.013-0.005,0.019-0.007l0.003-0.001
	c0.007-0.003,0.014-0.005,0.021-0.008c0,0,0.001,0,0.001-0.001c0.007-0.003,0.015-0.006,0.023-0.009
	c0.092-0.037,0.182-0.082,0.269-0.134c0.001-0.001,0.003-0.001,0.004-0.002c0.006-0.004,0.012-0.007,0.018-0.011
	c0.112-0.068,0.216-0.146,0.313-0.233c0.002-0.001,0.003-0.003,0.005-0.005c0.002-0.002,0.003-0.003,0.005-0.004
	c0.208-0.189,0.368-0.412,0.481-0.653c0.115-0.247,0.184-0.521,0.193-0.809c0-0.004,0-0.007,0-0.011c0-0.002,0-0.005,0-0.007
	c0-0.007,0-0.014,0-0.021c0,0,0,0,0,0c0-0.011,0-0.022,0-0.033V12.008c0-4.566-3.715-8.281-8.281-8.281H8.281
	C3.715,3.727,0,7.441,0,12.008v28.984c0,4.566,3.715,8.281,8.281,8.281h19.603c0.005,0,0.01,0,0.015,0c0.007,0,0.013,0,0.02,0h16.8
	c4.566,0,8.281-3.715,8.281-8.281C53,39.849,52.073,38.922,50.93,38.922z M8.281,45.133c-2.283,0-4.141-1.858-4.141-4.141V12.008
	c0-2.283,1.857-4.141,4.141-4.141h36.438c2.283,0,4.141,1.857,4.141,4.141v12.94l-8.144-9.715c-0.401-0.478-0.994-0.75-1.619-0.74
	c-0.624,0.01-1.21,0.3-1.595,0.79L21.548,35.575l-5.416-7.026c-0.392-0.509-0.998-0.806-1.64-0.806h-0.001
	c-0.643,0-1.248,0.299-1.64,0.808l-4.556,5.923c-0.697,0.906-0.528,2.206,0.379,2.903c0.906,0.697,2.206,0.528,2.903-0.379
	l2.917-3.792l9.194,11.927H8.281z"/>
<path d="M14.492,11.18c-3.425,0-6.211,2.786-6.211,6.211s2.786,6.211,6.211,6.211s6.211-2.786,6.211-6.211
	S17.917,11.18,14.492,11.18z M14.492,19.461c-1.142,0-2.07-0.929-2.07-2.07c0-1.142,0.929-2.07,2.07-2.07s2.07,0.929,2.07,2.07
	C16.563,18.532,15.634,19.461,14.492,19.461z"/>
</svg>
