<?xml version="1.0" encoding="iso-8859-1"?>
<!-- Generator: Adobe Illustrator 23.1.0, SVG Export Plug-In . SVG Version: 6.00 Build 0)  -->
<svg version="1.1" id="&#x421;&#x43B;&#x43E;&#x439;_1"
	 xmlns="http://www.w3.org/2000/svg" xmlns:xlink="http://www.w3.org/1999/xlink" x="0px" y="0px" viewBox="0 0 28 28"
	 style="enable-background:new 0 0 28 28;" xml:space="preserve">
<path d="M26.323,22.544c1.1-1.497,1.677-3.237,1.677-5.07c0-2.935-1.522-5.66-4.09-7.361c-0.237-2.615-1.458-5.04-3.5-6.909
	C18.153,1.138,15.158,0,11.977,0C8.796,0,5.8,1.138,3.543,3.204C1.258,5.295,0,8.083,0,11.054c0,2.285,0.737,4.452,2.137,6.306
	L0.08,22.449c-0.167,0.413-0.067,0.885,0.253,1.195c0.208,0.202,0.483,0.309,0.762,0.309c0.149,0,0.299-0.03,0.441-0.093
	l5.868-2.587c0.737,0.281,1.496,0.492,2.272,0.632c0.795,1.308,1.93,2.416,3.309,3.222c1.54,0.9,3.317,1.381,5.146,1.395
	c0.027,0.002,0.054,0.004,0.081,0.004c1.264,0,2.489-0.218,3.648-0.65l4.606,2.031C26.607,27.97,26.757,28,26.906,28
	c0.279,0,0.553-0.107,0.762-0.309c0.32-0.31,0.42-0.783,0.253-1.195L26.323,22.544z M24.056,22.775l0.826,2.044l-2.561-1.129
	c-0.277-0.122-0.592-0.124-0.87-0.005c-1.004,0.428-2.079,0.648-3.196,0.653c-0.015-0.001-0.029-0.002-0.044-0.002
	c-2.155,0-4.192-0.842-5.614-2.243c1.804-0.086,3.572-0.547,5.148-1.347c0.539-0.274,0.753-0.932,0.48-1.47
	c-0.274-0.539-0.932-0.753-1.471-0.48c-1.451,0.737-3.103,1.127-4.777,1.127c-1.455,0-2.856-0.283-4.163-0.841
	c-0.278-0.119-0.594-0.117-0.87,0.005l-3.826,1.687l1.288-3.186c0.153-0.378,0.083-0.809-0.182-1.119
	c-1.332-1.563-2.036-3.434-2.036-5.412c0-4.889,4.391-8.867,9.789-8.867c5.398,0,9.789,3.978,9.789,8.867
	c0,1.579-0.464,3.129-1.343,4.483c-0.329,0.507-0.184,1.184,0.322,1.513c0.507,0.329,1.184,0.184,1.513-0.322
	c0.779-1.201,1.3-2.528,1.541-3.906c1.281,1.255,2.013,2.907,2.013,4.652c0,1.527-0.544,2.973-1.574,4.181
	C23.974,21.966,23.904,22.397,24.056,22.775z M13.016,16.68c0,0.604-0.49,1.094-1.094,1.094s-1.094-0.49-1.094-1.094
	c0-0.604,0.49-1.094,1.094-1.094S13.016,16.076,13.016,16.68z M16.077,8.485c0.001,0.015,0.001,0.03,0.001,0.046
	c0,1.646-0.978,3.128-2.492,3.775c-0.313,0.134-0.516,0.449-0.516,0.804v0.071c0,0.604-0.49,1.094-1.094,1.094
	c-0.604,0-1.094-0.49-1.094-1.094v-0.07c0-1.232,0.724-2.337,1.845-2.816c0.697-0.298,1.151-0.975,1.163-1.731
	c0-0.01,0-0.021,0-0.032c0-1.055-0.859-1.914-1.914-1.914c-1.055,0-1.914,0.858-1.914,1.914c0,0.604-0.49,1.094-1.094,1.094
	s-1.094-0.49-1.094-1.094c0-2.261,1.84-4.101,4.101-4.101C14.222,4.43,16.052,6.245,16.077,8.485z"/>
</svg>
