<?xml version="1.0" encoding="iso-8859-1"?>
<!-- Generator: Adobe Illustrator 23.1.0, SVG Export Plug-In . SVG Version: 6.00 Build 0)  -->
<svg version="1.1" id="&#x421;&#x43B;&#x43E;&#x439;_1"
	 xmlns="http://www.w3.org/2000/svg" xmlns:xlink="http://www.w3.org/1999/xlink" x="0px" y="0px" viewBox="0 0 24 24"
	 style="enable-background:new 0 0 24 24;" xml:space="preserve">
<path d="M14.156,0C8.728,0,4.313,4.416,4.313,9.844c0,2.388,0.855,4.58,2.274,6.286l-6.31,6.267
	c-0.367,0.365-0.369,0.958-0.005,1.326C0.456,23.908,0.697,24,0.938,24c0.239,0,0.478-0.091,0.661-0.272l6.319-6.276
	c1.7,1.396,3.873,2.236,6.24,2.236c1.689,0,3.355-0.435,4.819-1.258c0.451-0.254,0.611-0.825,0.358-1.277
	c-0.254-0.451-0.825-0.611-1.277-0.358c-1.184,0.666-2.532,1.018-3.9,1.018c-4.394,0-7.969-3.575-7.969-7.969
	c0-4.394,3.575-7.969,7.969-7.969c4.394,0,7.969,3.575,7.969,7.969c0,1.384-0.36,2.747-1.041,3.942
	c-0.257,0.45-0.1,1.022,0.35,1.279c0.45,0.257,1.022,0.1,1.279-0.35C23.555,13.238,24,11.553,24,9.844C24,4.416,19.584,0,14.156,0z"
	/>
</svg>
