<?xml version="1.0" encoding="iso-8859-1"?>
<!-- Generator: Adobe Illustrator 23.1.0, SVG Export Plug-In . SVG Version: 6.00 Build 0)  -->
<svg version="1.1" id="&#x421;&#x43B;&#x43E;&#x439;_1"
	 xmlns="http://www.w3.org/2000/svg" xmlns:xlink="http://www.w3.org/1999/xlink" x="0px" y="0px" viewBox="0 0 28 28"
	 style="enable-background:new 0 0 28 28;" xml:space="preserve">
<path d="M19.719,20.427c-3.054-0.718-4.181-1.832-4.64-4.584c-0.088-0.527-0.543-0.913-1.077-0.914c-0.001,0-0.001,0-0.002,0
	c-0.533,0-0.989,0.385-1.078,0.91c-0.468,2.748-1.637,3.906-4.633,4.586c-0.495,0.112-0.848,0.551-0.852,1.058
	c-0.004,0.507,0.342,0.951,0.835,1.071c3.042,0.741,4.129,1.817,4.652,4.608c0.097,0.518,0.549,0.892,1.075,0.892h0.013
	c0.531-0.006,0.981-0.393,1.067-0.918c0.454-2.781,1.538-3.851,4.639-4.58c0.494-0.116,0.843-0.557,0.843-1.065
	C20.562,20.984,20.213,20.544,19.719,20.427z M14.906,22.484c-0.358,0.348-0.668,0.738-0.933,1.178c-0.26-0.424-0.558-0.8-0.9-1.136
	c-0.397-0.391-0.849-0.729-1.377-1.026c0.988-0.552,1.74-1.263,2.297-2.173c0.259,0.425,0.561,0.803,0.908,1.143
	c0.391,0.383,0.844,0.719,1.371,1.013C15.748,21.773,15.299,22.103,14.906,22.484z M10.719,3.327
	c0.004-0.508,0.357-0.946,0.852-1.058c1.005-0.228,1.219-0.526,1.351-1.305c0.09-0.526,0.545-0.91,1.078-0.91h0.002
	c0.534,0.001,0.989,0.387,1.077,0.914c0.13,0.78,0.334,1.062,1.359,1.302c0.494,0.116,0.843,0.557,0.843,1.065
	c0,0.508-0.349,0.948-0.843,1.065C15.394,4.646,15.21,4.898,15.079,5.7c-0.085,0.524-0.535,0.911-1.066,0.917
	c-0.005,0-0.009,0-0.013,0c-0.526,0-0.978-0.374-1.075-0.892c-0.151-0.806-0.349-1.078-1.371-1.326
	C11.061,4.279,10.715,3.835,10.719,3.327z M28,24.773c0,0.508-0.349,0.949-0.844,1.065c-1.044,0.245-1.227,0.497-1.358,1.299
	c-0.086,0.524-0.535,0.911-1.067,0.917c-0.004,0-0.009,0-0.013,0c-0.525,0-0.978-0.375-1.075-0.892
	c-0.151-0.806-0.349-1.078-1.371-1.326c-0.493-0.12-0.839-0.563-0.835-1.071c0.004-0.508,0.357-0.946,0.852-1.058
	c1.005-0.228,1.219-0.526,1.351-1.305c0.089-0.526,0.545-0.91,1.078-0.91h0.002c0.534,0.001,0.989,0.387,1.077,0.914
	c0.13,0.78,0.335,1.062,1.359,1.302C27.651,23.824,28,24.265,28,24.773z M6.563,24.773c0,0.508-0.349,0.949-0.844,1.065
	c-1.044,0.245-1.227,0.497-1.358,1.299c-0.086,0.524-0.536,0.911-1.067,0.917c-0.004,0-0.009,0-0.013,0
	c-0.526,0-0.978-0.375-1.075-0.892c-0.151-0.806-0.349-1.078-1.371-1.326C0.342,25.716-0.004,25.272,0,24.765
	c0.004-0.508,0.357-0.946,0.852-1.058c1.005-0.228,1.219-0.526,1.351-1.305c0.089-0.526,0.545-0.91,1.078-0.91h0.002
	c0.534,0.001,0.989,0.387,1.077,0.914c0.13,0.78,0.334,1.062,1.359,1.302C6.213,23.824,6.563,24.265,6.563,24.773z M12.281,12.112
	c0.494-0.116,0.843-0.557,0.843-1.065c0-0.508-0.349-0.948-0.843-1.065C9.227,9.264,8.1,8.15,7.641,5.398
	c-0.087-0.524-0.539-0.91-1.07-0.914c-0.003,0-0.006,0-0.009,0c-0.527,0-0.98,0.377-1.076,0.896c-0.521,2.837-1.604,3.911-4.635,4.6
	C0.357,10.092,0.004,10.531,0,11.038c-0.004,0.508,0.342,0.951,0.835,1.071c2.994,0.729,4.124,1.849,4.653,4.612
	c0.099,0.517,0.551,0.888,1.074,0.888c0.011,0,0.023,0,0.034-0.001c0.537-0.017,0.983-0.421,1.051-0.955
	C7.983,14.025,9.196,12.837,12.281,12.112z M6.516,13.212c-0.553-0.892-1.289-1.589-2.254-2.138
	c0.526-0.291,0.977-0.626,1.373-1.015c0.351-0.345,0.657-0.735,0.922-1.177c0.259,0.424,0.561,0.802,0.907,1.142
	c0.394,0.386,0.85,0.724,1.383,1.02c-0.549,0.303-1.022,0.649-1.43,1.046C7.072,12.426,6.772,12.799,6.516,13.212z M21.45,17.609
	c-0.004,0-0.009,0-0.013,0c-0.525,0-0.978-0.375-1.075-0.892c-0.523-2.791-1.61-3.867-4.653-4.608
	c-0.493-0.12-0.839-0.563-0.835-1.071c0.004-0.507,0.357-0.946,0.852-1.058c2.996-0.68,4.165-1.837,4.632-4.586
	c0.09-0.526,0.545-0.91,1.078-0.91h0.002c0.534,0.001,0.989,0.387,1.077,0.914c0.459,2.752,1.586,3.866,4.64,4.584
	c0.588,0.138,0.953,0.727,0.815,1.315c-0.138,0.588-0.727,0.952-1.315,0.814c-1.963-0.461-3.334-1.124-4.316-2.086
	c-0.347-0.34-0.649-0.719-0.908-1.143c-0.557,0.91-1.31,1.621-2.297,2.173c0.528,0.296,0.98,0.635,1.376,1.026
	c0.341,0.336,0.64,0.712,0.899,1.136c0.143-0.237,0.299-0.46,0.47-0.671c0.38-0.47,1.069-0.542,1.538-0.162
	c0.469,0.38,0.542,1.069,0.162,1.538c-0.522,0.645-0.86,1.525-1.063,2.769C22.431,17.216,21.981,17.603,21.45,17.609z"/>
</svg>
