<?xml version="1.0" encoding="iso-8859-1"?>
<!-- Generator: Adobe Illustrator 23.1.0, SVG Export Plug-In . SVG Version: 6.00 Build 0)  -->
<svg version="1.1" id="&#x421;&#x43B;&#x43E;&#x439;_1"
	 xmlns="http://www.w3.org/2000/svg" xmlns:xlink="http://www.w3.org/1999/xlink" x="0px" y="0px" viewBox="0 0 24 24"
	 style="enable-background:new 0 0 24 24;" xml:space="preserve">
<path d="M23.063,15.563c0.518,0,0.938-0.42,0.938-0.938V8.438c0-2.068-1.682-3.75-3.75-3.75h-4.035V3.466
	c0-1.421-1.156-2.576-2.576-2.576h-3.278c-1.421,0-2.576,1.156-2.576,2.576v1.222H3.75C1.682,4.688,0,6.371,0,8.438V19.36
	c0,2.068,1.682,3.75,3.75,3.75h16.5c2.068,0,3.75-1.682,3.75-3.75c0-0.518-0.42-0.938-0.938-0.938s-0.938,0.42-0.938,0.938
	c0,1.034-0.841,1.875-1.875,1.875H3.75c-1.034,0-1.875-0.841-1.875-1.875v-6.658h9.234v1.408c0,0.518,0.42,0.938,0.938,0.938
	c0.518,0,0.938-0.42,0.938-0.938v-1.408h9.141v1.924C22.125,15.144,22.545,15.563,23.063,15.563z M9.66,3.466
	c0-0.387,0.315-0.701,0.701-0.701h3.278c0.387,0,0.701,0.315,0.701,0.701v1.222H9.66V3.466z M1.875,10.827V8.438
	c0-1.034,0.841-1.875,1.875-1.875h16.5c1.034,0,1.875,0.841,1.875,1.875v2.389H1.875z"/>
</svg>
