<?xml version="1.0" encoding="iso-8859-1"?>
<!-- Generator: Adobe Illustrator 23.1.0, SVG Export Plug-In . SVG Version: 6.00 Build 0)  -->
<svg version="1.1" id="&#x421;&#x43B;&#x43E;&#x439;_1"
	 xmlns="http://www.w3.org/2000/svg" xmlns:xlink="http://www.w3.org/1999/xlink" x="0px" y="0px" viewBox="0 0 24 24"
	 style="enable-background:new 0 0 24 24;" xml:space="preserve">
<path d="M23.395,0.606c-0.551-0.552-1.354-0.745-2.095-0.504L1.427,6.551c-0.779,0.253-1.321,0.916-1.413,1.73
	c-0.092,0.814,0.287,1.582,0.99,2.003c0.053,0.032,0.11,0.059,0.169,0.079l6.085,2.154v2.983c0,0.518,0.42,0.938,0.937,0.938h3.151
	l2.282,6.39c0.021,0.057,0.047,0.113,0.078,0.165C14.085,23.629,14.745,24,15.468,24c0.079,0,0.159-0.004,0.24-0.014
	c0.814-0.092,1.477-0.633,1.731-1.413l0.814-2.503c0.16-0.492-0.11-1.021-0.602-1.181c-0.492-0.16-1.021,0.109-1.181,0.602
	l-0.814,2.503c-0.025,0.076-0.078,0.12-0.158,0.129c-0.059,0.007-0.109-0.009-0.147-0.046l-2.321-6.498l4.546-7.887
	c0.209-0.363,0.152-0.821-0.14-1.122C17.143,6.27,16.687,6.2,16.318,6.399l-8.21,4.431l-6.186-2.19
	C1.885,8.602,1.87,8.553,1.877,8.493c0.009-0.08,0.053-0.133,0.129-0.158l19.872-6.45c0.073-0.023,0.137-0.008,0.191,0.046
	c0.054,0.054,0.07,0.119,0.046,0.192L17.994,14.8c-0.16,0.492,0.109,1.021,0.602,1.181c0.492,0.16,1.021-0.109,1.181-0.602
	l4.121-12.676C24.139,1.961,23.946,1.157,23.395,0.606z M11.45,14.564H9.132v-2.156l5.169-2.79L11.45,14.564z"/>
</svg>
