<?xml version="1.0" encoding="iso-8859-1"?>
<!-- Generator: Adobe Illustrator 23.1.0, SVG Export Plug-In . SVG Version: 6.00 Build 0)  -->
<svg version="1.1" id="&#x421;&#x43B;&#x43E;&#x439;_1"
	 xmlns="http://www.w3.org/2000/svg" xmlns:xlink="http://www.w3.org/1999/xlink" x="0px" y="0px" viewBox="0 0 24 24"
	 style="enable-background:new 0 0 24 24;" xml:space="preserve">
<g>
	<defs>
		<rect id="SVGID_1_" width="24" height="24"/>
	</defs>
	<clipPath id="SVGID_2_">
		<use xlink:href="#SVGID_1_"  style="overflow:visible;"/>
	</clipPath>
	<g style="clip-path:url(#SVGID_2_);">
		<path d="M20.25,24.046H3.75c-2.068,0-3.75-1.682-3.75-3.75v-3.188c0-0.518,0.42-0.938,0.938-0.938c0.518,0,0.938,0.42,0.938,0.938
			v3.188c0,1.034,0.841,1.875,1.875,1.875h16.5c1.034,0,1.875-0.841,1.875-1.875v-3.188c0-0.518,0.42-0.938,0.938-0.938
			S24,16.591,24,17.109v3.188C24,22.364,22.318,24.046,20.25,24.046z M12.984,19.358V8.296c0-1.034-0.841-1.875-1.875-1.875H7.185
			l4.199-4.224c0.177-0.178,0.412-0.276,0.662-0.276c0.251,0,0.486,0.098,0.662,0.276l4.199,4.224h-0.924
			c-0.518,0-0.938,0.42-0.938,0.938c0,0.518,0.42,0.937,0.938,0.937h1.031c0.74,0,1.401-0.442,1.686-1.127
			c0.286-0.687,0.132-1.472-0.392-1.999l-4.27-4.295c-0.531-0.534-1.239-0.829-1.992-0.829s-1.461,0.294-1.992,0.829l-4.27,4.295
			C5.261,5.698,5.107,6.482,5.393,7.169c0.285,0.684,0.946,1.127,1.686,1.127h4.031v11.062c0,0.518,0.42,0.938,0.938,0.938
			C12.565,20.296,12.984,19.876,12.984,19.358z"/>
	</g>
</g>
</svg>
