<?xml version="1.0" encoding="iso-8859-1"?>
<!-- Generator: Adobe Illustrator 23.1.0, SVG Export Plug-In . SVG Version: 6.00 Build 0)  -->
<svg version="1.1" id="&#x421;&#x43B;&#x43E;&#x439;_1"
	 xmlns="http://www.w3.org/2000/svg" xmlns:xlink="http://www.w3.org/1999/xlink" x="0px" y="0px" viewBox="0 0 24 24"
	 style="enable-background:new 0 0 24 24;" xml:space="preserve">
<path d="M23.939,20.565c-0.106-0.507-0.602-0.832-1.109-0.727c-0.507,0.105-0.832,0.602-0.727,1.109
	c0.061,0.292-0.012,0.591-0.198,0.821c-0.108,0.133-0.35,0.357-0.75,0.357H2.845c-0.4,0-0.642-0.223-0.75-0.357
	c-0.187-0.23-0.259-0.529-0.199-0.821c0.973-4.673,5.095-8.087,9.855-8.202c0.082,0.003,0.165,0.005,0.248,0.005
	c0.083,0,0.167-0.002,0.25-0.005c3.353,0.08,6.452,1.779,8.329,4.578c0.288,0.43,0.871,0.545,1.301,0.257
	c0.43-0.288,0.545-0.871,0.257-1.301c-1.538-2.294-3.772-3.962-6.319-4.801c1.552-1.164,2.558-3.018,2.558-5.103
	C18.375,2.86,15.515,0,12,0C8.485,0,5.625,2.86,5.625,6.375c0,2.086,1.007,3.941,2.561,5.105c-1.423,0.469-2.759,1.198-3.928,2.16
	c-2.144,1.763-3.634,4.223-4.197,6.925c-0.176,0.847,0.035,1.717,0.58,2.386C1.182,23.618,1.986,24,2.845,24h18.31
	c0.859,0,1.663-0.382,2.205-1.049C23.904,22.282,24.115,21.412,23.939,20.565z M7.5,6.375c0-2.481,2.019-4.5,4.5-4.5
	c2.481,0,4.5,2.019,4.5,4.5c0,2.405-1.896,4.375-4.272,4.494c-0.076-0.001-0.152-0.002-0.228-0.002
	c-0.076,0-0.151,0.001-0.227,0.002C9.397,10.751,7.5,8.78,7.5,6.375z"/>
</svg>
