<?xml version="1.0" encoding="iso-8859-1"?>
<!-- Generator: Adobe Illustrator 23.1.0, SVG Export Plug-In . SVG Version: 6.00 Build 0)  -->
<svg version="1.1" id="&#x421;&#x43B;&#x43E;&#x439;_1"
	 xmlns="http://www.w3.org/2000/svg" xmlns:xlink="http://www.w3.org/1999/xlink" x="0px" y="0px" viewBox="0 0 34 34"
	 style="enable-background:new 0 0 34 34;" xml:space="preserve">
<path d="M17,7.969c2.197,0,3.984-1.787,3.984-3.984C20.984,1.787,19.197,0,17,0s-3.984,1.787-3.984,3.984
	C13.016,6.181,14.803,7.969,17,7.969z M17,2.656c0.732,0,1.328,0.596,1.328,1.328c0,0.732-0.596,1.328-1.328,1.328
	s-1.328-0.596-1.328-1.328C15.672,3.252,16.268,2.656,17,2.656z M24.305,21.123c0,1.623-0.865,3.151-2.257,3.986l-0.096,0.058
	c-0.597,0.358-0.968,1.013-0.968,1.708v5.797c0,0.734-0.595,1.328-1.328,1.328c-0.733,0-1.328-0.595-1.328-1.328v-5.797
	c0-1.623,0.865-3.151,2.257-3.986l0.096-0.058c0.597-0.358,0.967-1.013,0.967-1.708v-5.916c0-2.744-2.546-3.32-4.682-3.32
	s-4.682,0.576-4.682,3.32v5.897c0,0.703,0.376,1.361,0.982,1.717l0.113,0.066c1.414,0.832,2.292,2.367,2.292,4.007v5.777
	c0,0.734-0.595,1.328-1.328,1.328c-0.734,0-1.328-0.595-1.328-1.328v-5.777c0-0.703-0.376-1.361-0.982-1.717l-0.113-0.066
	c-1.414-0.832-2.292-2.367-2.292-4.007v-5.897c0-2.001,0.808-3.613,2.336-4.663c1.25-0.859,2.98-1.313,5.002-1.313
	s3.751,0.454,5.002,1.313c1.528,1.05,2.336,2.663,2.336,4.663V21.123z M6.641,10.625c2.197,0,3.984-1.787,3.984-3.984
	c0-2.197-1.787-3.984-3.984-3.984c-2.197,0-3.984,1.787-3.984,3.984C2.656,8.838,4.444,10.625,6.641,10.625z M6.641,5.313
	c0.732,0,1.328,0.596,1.328,1.328c0,0.732-0.596,1.328-1.328,1.328c-0.732,0-1.328-0.596-1.328-1.328
	C5.313,5.908,5.908,5.313,6.641,5.313z M10.625,28.023v4.649c0,0.734-0.594,1.328-1.328,1.328c-0.734,0-1.328-0.595-1.328-1.328
	v-4.649c0-0.733,0.595-1.328,1.328-1.328C10.031,26.695,10.625,27.29,10.625,28.023z M7.836,13.248c0,0.734-0.595,1.328-1.328,1.328
	c-3.852,0-3.852,1.809-3.852,2.49v5.644c0,0.624,0.298,1.22,0.797,1.594c1.164,0.873,1.859,2.263,1.859,3.719v4.649
	C5.313,33.405,4.718,34,3.984,34c-0.734,0-1.328-0.595-1.328-1.328v-4.649c0-0.624-0.298-1.219-0.797-1.594
	C0.695,25.556,0,24.166,0,22.711v-5.644c0-1.795,0.737-3.214,2.132-4.102c1.088-0.693,2.56-1.044,4.376-1.044
	C7.241,11.92,7.836,12.514,7.836,13.248z M27.359,10.625c2.197,0,3.984-1.787,3.984-3.984c0-2.197-1.787-3.984-3.984-3.984
	s-3.984,1.787-3.984,3.984C23.375,8.838,25.162,10.625,27.359,10.625z M27.359,5.313c0.732,0,1.328,0.596,1.328,1.328
	c0,0.732-0.596,1.328-1.328,1.328s-1.328-0.596-1.328-1.328C26.031,5.908,26.627,5.313,27.359,5.313z M26.031,28.023v4.649
	c0,0.734-0.594,1.328-1.328,1.328s-1.328-0.595-1.328-1.328v-4.649c0-0.733,0.594-1.328,1.328-1.328S26.031,27.29,26.031,28.023z
	 M34,17.066v5.644c0,1.455-0.695,2.846-1.859,3.719c-0.499,0.374-0.797,0.97-0.797,1.594v4.649c0,0.734-0.595,1.328-1.328,1.328
	s-1.328-0.595-1.328-1.328v-4.649c0-1.455,0.695-2.846,1.859-3.719c0.499-0.374,0.797-0.97,0.797-1.594v-5.644
	c0-0.681,0-2.49-3.852-2.49c-0.734,0-1.328-0.595-1.328-1.328c0-0.734,0.594-1.328,1.328-1.328c1.816,0,3.288,0.351,4.376,1.044
	C33.263,13.852,34,15.271,34,17.066z"/>
</svg>
