<?xml version="1.0" encoding="iso-8859-1"?>
<!-- Generator: Adobe Illustrator 23.1.0, SVG Export Plug-In . SVG Version: 6.00 Build 0)  -->
<svg version="1.1" id="&#x421;&#x43B;&#x43E;&#x439;_1"
	 xmlns="http://www.w3.org/2000/svg" xmlns:xlink="http://www.w3.org/1999/xlink" x="0px" y="0px" viewBox="0 0 28 28"
	 style="enable-background:new 0 0 28 28;" xml:space="preserve">
<path d="M20.102,14.05c-0.538-0.256-1.087-0.476-1.646-0.661c1.809-1.358,2.982-3.52,2.982-5.951C21.438,3.336,18.101,0,14,0
	C9.899,0,6.563,3.336,6.563,7.438c0,2.434,1.175,4.598,2.988,5.956c-1.661,0.547-3.219,1.397-4.583,2.519
	c-2.501,2.057-4.24,4.927-4.896,8.08c-0.206,0.988,0.041,2.003,0.676,2.784C1.38,27.554,2.317,28,3.32,28h13.47
	c0.604,0,1.094-0.49,1.094-1.094c0-0.604-0.49-1.094-1.094-1.094H3.32c-0.467,0-0.749-0.261-0.875-0.416
	c-0.218-0.268-0.303-0.617-0.232-0.958c1.135-5.452,5.944-9.435,11.497-9.569c0.096,0.004,0.193,0.006,0.29,0.006
	c0.098,0,0.196-0.002,0.293-0.006c1.702,0.04,3.339,0.428,4.87,1.156c0.546,0.259,1.198,0.027,1.457-0.518
	C20.88,14.962,20.648,14.309,20.102,14.05z M14.267,12.681c-0.089-0.002-0.178-0.002-0.267-0.002c-0.088,0-0.177,0.001-0.265,0.002
	c-2.772-0.138-4.985-2.437-4.985-5.243c0-2.895,2.355-5.25,5.25-5.25c2.895,0,5.25,2.355,5.25,5.25
	C19.25,10.243,17.039,12.541,14.267,12.681z"/>
<path d="M26.906,21.711h-3.008v-3.008c0-0.604-0.49-1.094-1.094-1.094c-0.604,0-1.094,0.49-1.094,1.094v3.008h-3.008
	c-0.604,0-1.094,0.49-1.094,1.094c0,0.604,0.49,1.094,1.094,1.094h3.008v3.008c0,0.604,0.49,1.094,1.094,1.094
	c0.604,0,1.094-0.49,1.094-1.094v-3.008h3.008c0.604,0,1.094-0.49,1.094-1.094C28,22.201,27.51,21.711,26.906,21.711z"/>
</svg>
