<?xml version="1.0" encoding="iso-8859-1"?>
<!-- Generator: Adobe Illustrator 23.1.0, SVG Export Plug-In . SVG Version: 6.00 Build 0)  -->
<svg version="1.1" id="&#x421;&#x43B;&#x43E;&#x439;_1"
	 xmlns="http://www.w3.org/2000/svg" xmlns:xlink="http://www.w3.org/1999/xlink" x="0px" y="0px" viewBox="0 0 24 18"
	 style="enable-background:new 0 0 24 18;" xml:space="preserve">
<path d="M13.313,17.297H3.75c-2.068,0-3.75-1.682-3.75-3.75V4.453c0-2.068,1.682-3.75,3.75-3.75h9.563c2.068,0,3.75,1.682,3.75,3.75
	v0.789l5.585-2.754c0.291-0.143,0.635-0.126,0.91,0.045C23.833,2.703,24,3.004,24,3.328v4.781c0,0.518-0.42,0.938-0.938,0.938
	s-0.938-0.42-0.938-0.938V4.836l-5.492,2.708c-0.129,0.064-0.271,0.097-0.415,0.097h-0.094c-0.518,0-0.938-0.42-0.938-0.938v-2.25
	c0-1.034-0.841-1.875-1.875-1.875H3.75c-1.034,0-1.875,0.841-1.875,1.875v9.094c0,1.034,0.841,1.875,1.875,1.875h9.563
	c1.034,0,1.875-0.841,1.875-1.875v-2.25c0-0.518,0.42-0.938,0.938-0.938h0.047c0.145,0,0.288,0.034,0.417,0.098l5.535,2.749v-0.409
	c0-0.518,0.42-0.938,0.938-0.938S24,12.279,24,12.797v1.922c0,0.324-0.168,0.626-0.444,0.797c-0.276,0.171-0.62,0.187-0.911,0.043
	l-5.583-2.773v0.761C17.063,15.615,15.38,17.297,13.313,17.297z"/>
</svg>
