<?xml version="1.0" encoding="iso-8859-1"?>
<!-- Generator: Adobe Illustrator 23.1.0, SVG Export Plug-In . SVG Version: 6.00 Build 0)  -->
<svg version="1.1" id="&#x421;&#x43B;&#x43E;&#x439;_1"
	 xmlns="http://www.w3.org/2000/svg" xmlns:xlink="http://www.w3.org/1999/xlink" x="0px" y="0px" viewBox="0 0 24 24"
	 style="enable-background:new 0 0 24 24;" xml:space="preserve">
<g>
	<defs>
		<rect id="SVGID_1_" width="24" height="24"/>
	</defs>
	<clipPath id="SVGID_2_">
		<use xlink:href="#SVGID_1_"  style="overflow:visible;"/>
	</clipPath>
	<g style="clip-path:url(#SVGID_2_);">
		<path d="M23.727,17.136c-0.192-0.481-0.737-0.715-1.218-0.523c-0.481,0.192-0.715,0.737-0.523,1.218
			c0.244,0.611,0.164,1.309-0.214,1.868c-0.378,0.558-0.984,0.878-1.662,0.878H3.894c-0.739,0-1.396-0.386-1.756-1.032
			c-0.361-0.647-0.344-1.41,0.045-2.041l8.108-13.128C10.66,3.78,11.3,3.423,12.002,3.423c0.702,0,1.342,0.357,1.711,0.955
			l5.997,9.709c0.272,0.44,0.85,0.577,1.29,0.305c0.441-0.272,0.577-0.85,0.305-1.29l-5.997-9.709
			c-0.713-1.155-1.949-1.844-3.306-1.844S9.409,2.237,8.696,3.392L0.588,16.52c-0.752,1.217-0.784,2.69-0.088,3.939
			c0.696,1.248,1.965,1.993,3.394,1.993H20.11c1.31,0,2.481-0.62,3.214-1.702C24.051,19.677,24.202,18.326,23.727,17.136z"/>
		<path d="M12.002,18.749c0.518,0,0.938-0.42,0.938-0.937s-0.42-0.937-0.938-0.937h0c-0.518,0-0.937,0.42-0.937,0.937
			S11.485,18.749,12.002,18.749z"/>
		<path d="M12.939,14.531v-6.89c0-0.518-0.42-0.937-0.937-0.937s-0.937,0.42-0.937,0.937v6.89c0,0.518,0.42,0.937,0.937,0.937
			S12.939,15.049,12.939,14.531z"/>
	</g>
</g>
</svg>
